<svg xmlns="http://www.w3.org/2000/svg" width="24" height="24" viewBox="0 0 24 24"><g transform="translate(-684 -252)"><path d="M18.75,1.5H.75A.755.755,0,0,1,0,.75.755.755,0,0,1,.75,0h18a.755.755,0,0,1,.75.75A.755.755,0,0,1,18.75,1.5Z" transform="translate(686.25 272.5)" fill="#3370d9"/><path d="M7.155,1.474c-1.94-1.94-3.84-1.99-5.83,0L.115,2.684a.417.417,0,0,0-.1.4,8.129,8.129,0,0,0,5.53,5.53.5.5,0,0,0,.12.02.4.4,0,0,0,.29-.12l1.2-1.21a4.133,4.133,0,0,0,1.47-2.89A4.117,4.117,0,0,0,7.155,1.474Z" transform="translate(695.865 254.006)" fill="#3370d9"/><path d="M12.116,5.48c-.29-.14-.57-.28-.84-.44-.22-.13-.43-.27-.64-.42a6.038,6.038,0,0,1-.56-.43,1.22,1.22,0,0,1-.17-.15A8.457,8.457,0,0,1,8.876,3a1.218,1.218,0,0,1-.15-.18,5.816,5.816,0,0,1-.42-.55,5.491,5.491,0,0,1-.39-.59c-.16-.27-.3-.54-.44-.82-.14-.3-.25-.59-.35-.86L.846,6.28a1.2,1.2,0,0,0-.28.55l-.54,3.83a2.05,2.05,0,0,0,.51,1.75,1.991,1.991,0,0,0,1.4.54,2.186,2.186,0,0,0,.36-.03l3.84-.54a1.113,1.113,0,0,0,.55-.28l6.28-6.28C12.686,5.72,12.416,5.61,12.116,5.48Z" transform="translate(687.494 258.05)" fill="#3370d9"/><path d="M0,0H24V24H0Z" transform="translate(708 276) rotate(180)" fill="none" opacity="0"/></g></svg>